<svg xmlns="http://www.w3.org/2000/svg" viewBox="0 0 192 192"><defs><style>.cls-1{fill:none;}.cls-2{fill:#FFFFFF;fill-rule:evenodd;}</style></defs><g id="Layer_2" data-name="Layer 2"><g id="Layer_1-2" data-name="Layer 1"><rect class="cls-1" width="192" height="192"/><g id="logomark"><path class="cls-2" d="M13.23,75.39,1.73,140.61a6.69,6.69,0,0,0,6.75,8.19H24.29a17.43,17.43,0,0,1,7.09,1.46,15,15,0,0,1,5.49,4.16,15.44,15.44,0,0,1,3.07,6.23A18.13,18.13,0,0,1,40.1,168l-2.78,15.81A6.68,6.68,0,0,0,44.07,192h46a9.75,9.75,0,0,0,6.22-2.4l79-67.2a10.07,10.07,0,0,0,3.43-5.79l11.5-65.22a6.69,6.69,0,0,0-6.75-8.19H167.71a17.43,17.43,0,0,1-7.09-1.46,15,15,0,0,1-5.49-4.16,15.44,15.44,0,0,1-3.07-6.23A18.13,18.13,0,0,1,151.9,24l2.78-15.81A6.68,6.68,0,0,0,147.93,0h-46A9.75,9.75,0,0,0,95.7,2.4l-79,67.2A10.07,10.07,0,0,0,13.23,75.39ZM79.34,144h-22a6.68,6.68,0,0,1-6.75-8.19l7.27-41.22a10,10,0,0,1,3.42-5.79l45.17-38.4a9.73,9.73,0,0,1,6.22-2.4h22a6.68,6.68,0,0,1,6.75,8.19l-7.27,41.22a10,10,0,0,1-3.42,5.79L85.56,141.6A9.73,9.73,0,0,1,79.34,144Z"/></g></g></g></svg>
