<svg xmlns="http://www.w3.org/2000/svg" viewBox="0 0 676.92 129.18"><defs><style>.cls-1{fill:#A3E314;}.cls-2{fill:#A3E314;fill-rule:evenodd;}</style></defs><g id="Layer_2" data-name="Layer 2"><g id="Layer_1-2" data-name="Layer 1"><path class="cls-1" d="M190.22,51.94l1.77-10a1.63,1.63,0,0,0-1.64-2H179.83a1.64,1.64,0,0,1-1.65-2v0q.88-5,4.18-7.38a14.45,14.45,0,0,1,8.57-2.34c.56,0,1.18,0,1.85.06h.1a2.47,2.47,0,0,0,2.47-2l1.69-9.57a1.62,1.62,0,0,0-1.38-2l-1.19-.14a30.26,30.26,0,0,0-3.15-.18,32.5,32.5,0,0,0-13.62,2.76,25.4,25.4,0,0,0-10,8,29.5,29.5,0,0,0-5.25,12.78v0a2.5,2.5,0,0,1-2.35,2h-7.52a2.49,2.49,0,0,0-2.36,2l-1.77,10a1.64,1.64,0,0,0,1.65,2h7.52a1.63,1.63,0,0,1,1.65,2L151,103.18a1.63,1.63,0,0,0,1.65,2h11.72a2.5,2.5,0,0,0,2.35-2L175,55.94a2.48,2.48,0,0,1,2.35-2h10.52A2.48,2.48,0,0,0,190.22,51.94Z"/><path class="cls-1" d="M211.79,39.9H200a2.49,2.49,0,0,0-2.36,2l-10.8,61.28a1.63,1.63,0,0,0,1.65,2h11.84a2.5,2.5,0,0,0,2.35-2l10.8-61.28A1.63,1.63,0,0,0,211.79,39.9Z"/><path class="cls-1" d="M201.66,30.18H213.5a2.48,2.48,0,0,0,2.35-2l2.09-11.84a1.63,1.63,0,0,0-1.65-2H204.45a2.49,2.49,0,0,0-2.35,2L200,28.18A1.64,1.64,0,0,0,201.66,30.18Z"/><path class="cls-1" d="M250.8,53.22a2.49,2.49,0,0,0,2.35-2l1.77-10a1.63,1.63,0,0,0-1.65-2h-1.84a25.36,25.36,0,0,0-12.2,2.88A17.39,17.39,0,0,0,234.4,46c-.7.78-1.87.38-1.7-.59l.61-3.46a1.63,1.63,0,0,0-1.64-2H220.79a2.49,2.49,0,0,0-2.36,2l-10.8,61.28a1.63,1.63,0,0,0,1.65,2h11.84a2.5,2.5,0,0,0,2.35-2l6.06-34.36q1.31-7.44,6.11-11.52a17.2,17.2,0,0,1,11.52-4.08Z"/><path class="cls-1" d="M298.3,42.9q-6.3-4.44-15.54-4.44a32.7,32.7,0,0,0-13,2.52A26.08,26.08,0,0,0,260,48a21.55,21.55,0,0,0-4.91,10.5,15.33,15.33,0,0,0,2.19,11.7q3.39,5,11.14,7.26l10.15,3a15.73,15.73,0,0,1,3.58,1.5,6.74,6.74,0,0,1,2.32,2.16A4.4,4.4,0,0,1,285,87.3a7.48,7.48,0,0,1-3.41,5,12.39,12.39,0,0,1-7.06,1.92A14.81,14.81,0,0,1,265,91.14a15.67,15.67,0,0,1-4.95-7,1.75,1.75,0,0,0-2.45-.84l-9.14,4A2.38,2.38,0,0,0,247,89.94a20.21,20.21,0,0,0,8,11.7q6.86,5,17.3,5a34.17,34.17,0,0,0,13.41-2.52,26.57,26.57,0,0,0,9.87-7,21.1,21.1,0,0,0,4.95-10.38q1.23-7-2.3-11.76t-11.15-7.2l-9.89-3.12a25,25,0,0,1-3.75-1.56,5.48,5.48,0,0,1-2.32-2.16,4.52,4.52,0,0,1-.43-3,7,7,0,0,1,3.12-4.74,11.49,11.49,0,0,1,6.55-1.74A13.83,13.83,0,0,1,288.78,54a10.88,10.88,0,0,1,3.91,5.24,1.76,1.76,0,0,0,2.48.91l9.13-4a2.36,2.36,0,0,0,1.44-2.65A18.87,18.87,0,0,0,298.3,42.9Z"/><path class="cls-1" d="M353.55,41.9a1.63,1.63,0,0,0-1.64-2h-11a1.63,1.63,0,0,1-1.65-2L341.18,27a1.63,1.63,0,0,0-1.65-2H327.69a2.48,2.48,0,0,0-2.35,2l-.54,3a11.76,11.76,0,0,1-3.87,7.32,13,13,0,0,1-7.16,2.5,2.5,2.5,0,0,0-2.21,2l-1.78,10.06a1.64,1.64,0,0,0,1.65,2h7.16a1.63,1.63,0,0,1,1.65,2l-4.73,26.8q-2,11,3.11,17.1t16.09,6.06a37.21,37.21,0,0,0,4-.24l2.14-.25a2.5,2.5,0,0,0,2.09-2L344.61,94a1.64,1.64,0,0,0-1.85-2h0a19.77,19.77,0,0,1-2,.12,13,13,0,0,1-6.09-1.2,5.89,5.89,0,0,1-3-3.48,11.4,11.4,0,0,1-.17-5.52l4.58-26a2.48,2.48,0,0,1,2.35-2h11a2.48,2.48,0,0,0,2.35-2Z"/><path class="cls-1" d="M415.11,39.9H403.39a2.49,2.49,0,0,0-2.36,2l-6.39,36.28a18,18,0,0,1-3,7.44,15.71,15.71,0,0,1-5.53,4.86A15.15,15.15,0,0,1,379,92.22a12.06,12.06,0,0,1-6.59-1.74,9.11,9.11,0,0,1-3.84-4.8,14,14,0,0,1-.36-7.14l6.46-36.64a1.63,1.63,0,0,0-1.64-2H361.15a2.49,2.49,0,0,0-2.36,2l-6.69,38a29.17,29.17,0,0,0,.52,14,17.53,17.53,0,0,0,6.87,9.36c3.29,2.23,7.49,3.36,12.61,3.36a26.81,26.81,0,0,0,12.65-3,21.05,21.05,0,0,0,5.13-3.79c.73-.73,1.84-.33,1.67.62l-.48,2.73a1.63,1.63,0,0,0,1.65,2H403.6a2.5,2.5,0,0,0,2.35-2l10.8-61.28A1.63,1.63,0,0,0,415.11,39.9Z"/><path class="cls-1" d="M483.78,55.26A26.14,26.14,0,0,0,474.12,43a27.37,27.37,0,0,0-15.88-4.56A32.25,32.25,0,0,0,444.4,41.4a30,30,0,0,0-6.75,4.32c-.73.63-1.72.16-1.56-.72l.54-3.1a1.63,1.63,0,0,0-1.64-2H424.11a2.49,2.49,0,0,0-2.36,2l-15,85.28a1.63,1.63,0,0,0,1.64,2H420.2a2.5,2.5,0,0,0,2.36-2l4.57-25.94a1.13,1.13,0,0,1,1.8-.74,17.71,17.71,0,0,0,4.64,3.36,27.35,27.35,0,0,0,12.53,2.76,36.39,36.39,0,0,0,17.72-4.5,42.07,42.07,0,0,0,13.92-12.3,40.92,40.92,0,0,0,7.37-17.28A31.55,31.55,0,0,0,483.78,55.26Zm-15,17.28a24.64,24.64,0,0,1-4.2,10.2,23.31,23.31,0,0,1-7.76,7,20.42,20.42,0,0,1-10,2.52A15.31,15.31,0,0,1,438,89.7a13.62,13.62,0,0,1-5.26-7,20,20,0,0,1-.54-10.2,24.74,24.74,0,0,1,4.12-10.08,22.68,22.68,0,0,1,7.71-7A19.89,19.89,0,0,1,453.76,53a15.8,15.8,0,0,1,9.1,2.52,14,14,0,0,1,5.31,7A19.32,19.32,0,0,1,468.79,72.54Z"/><path class="cls-1" d="M499,89.34H487.15a2.47,2.47,0,0,0-2.35,2l-2.09,11.84a1.63,1.63,0,0,0,1.65,2H496.2a2.5,2.5,0,0,0,2.35-2l2.09-11.84A1.64,1.64,0,0,0,499,89.34Z"/><path class="cls-1" d="M600.39,41.58a21.67,21.67,0,0,0-11.87-3.12A28.27,28.27,0,0,0,574,42.36a27.43,27.43,0,0,0-6.61,5.43,1,1,0,0,1-1.61,0,15.36,15.36,0,0,0-4.31-5.11,21.15,21.15,0,0,0-13.42-4.2,26.13,26.13,0,0,0-13.33,3.48,19.76,19.76,0,0,0-4.36,3.4c-.71.74-1.82.3-1.65-.63l.49-2.81a1.63,1.63,0,0,0-1.64-2H516.71a2.49,2.49,0,0,0-2.36,2l-10.8,61.28a1.63,1.63,0,0,0,1.65,2H517a2.5,2.5,0,0,0,2.35-2l6.4-36.28a18.83,18.83,0,0,1,2.87-7.44A14.42,14.42,0,0,1,540.84,53a11.23,11.23,0,0,1,6.36,1.68,8.88,8.88,0,0,1,3.54,4.8A15.58,15.58,0,0,1,551,66.9l-6.4,36.28a1.63,1.63,0,0,0,1.65,2H558a2.5,2.5,0,0,0,2.35-2L566.7,66.9a19,19,0,0,1,2.88-7.44A14.42,14.42,0,0,1,581.76,53a11.23,11.23,0,0,1,6.36,1.68,8.88,8.88,0,0,1,3.54,4.8,15.58,15.58,0,0,1,.25,7.44l-6.4,36.28a1.63,1.63,0,0,0,1.65,2h11.72a2.5,2.5,0,0,0,2.35-2l7-40a24.06,24.06,0,0,0-.84-12.9A17.44,17.44,0,0,0,600.39,41.58Z"/><path class="cls-1" d="M676.34,58.08a25.12,25.12,0,0,0-4.45-10.14,22.47,22.47,0,0,0-8.67-7,30.64,30.64,0,0,0-13.06-2.52,35.52,35.52,0,0,0-17.34,4.44A42.35,42.35,0,0,0,619.05,55a40.65,40.65,0,0,0-7.4,17.46A33.22,33.22,0,0,0,612.8,89.7a24.57,24.57,0,0,0,9.65,12.36q6.81,4.56,16.89,4.56a38.87,38.87,0,0,0,12.6-2,37.4,37.4,0,0,0,10.72-5.64,29.7,29.7,0,0,0,6.26-6.43,1.82,1.82,0,0,0-.42-2.72L660,85.2a2.23,2.23,0,0,0-2.63.67,21.26,21.26,0,0,1-5.85,4.67,19.72,19.72,0,0,1-9.58,2.28,15.75,15.75,0,0,1-9.1-2.52,12.3,12.3,0,0,1-5-7.14,16.11,16.11,0,0,1-.56-3.61,2.46,2.46,0,0,1,2.38-2.45h43.13A2.54,2.54,0,0,0,675,75.45c.18-.49.35-1,.5-1.53.32-1.16.59-2.34.8-3.54A32.79,32.79,0,0,0,676.34,58.08ZM658.16,65H632.35a1.7,1.7,0,0,1-1.44-2.63c.21-.42.44-.82.67-1.21a20.15,20.15,0,0,1,7.09-7.2,17.84,17.84,0,0,1,9.2-2.52,13.19,13.19,0,0,1,8.38,2.52,11.12,11.12,0,0,1,4.07,6.84,11.52,11.52,0,0,1,.22,1.79A2.46,2.46,0,0,1,658.16,65Z"/><g id="logomark"><path class="cls-2" d="M7.6,49.29.08,91.92A4.37,4.37,0,0,0,4.5,97.27H14.83a11.32,11.32,0,0,1,4.63,1A9.68,9.68,0,0,1,23.05,101a10,10,0,0,1,2,4.07,11.89,11.89,0,0,1,.11,4.8l-1.83,10.34a4.37,4.37,0,0,0,4.42,5.35H57.83a6.34,6.34,0,0,0,4.07-1.57L113.57,80a6.48,6.48,0,0,0,2.24-3.78l7.52-42.63a4.38,4.38,0,0,0-4.41-5.36H108.58a11.16,11.16,0,0,1-4.63-1,9.76,9.76,0,0,1-3.59-2.72,10.11,10.11,0,0,1-2-4.07,11.89,11.89,0,0,1-.11-4.8l1.83-10.33A4.38,4.38,0,0,0,95.65,0H65.58a6.36,6.36,0,0,0-4.07,1.57L9.84,45.5A6.56,6.56,0,0,0,7.6,49.29ZM50.82,94.13H36.43A4.37,4.37,0,0,1,32,88.78l4.76-26.94A6.54,6.54,0,0,1,39,58.05L68.53,33a6.33,6.33,0,0,1,4.06-1.57H87a4.37,4.37,0,0,1,4.42,5.35l-4.75,27a6.53,6.53,0,0,1-2.24,3.78L54.88,92.57A6.37,6.37,0,0,1,50.82,94.13Z"/></g></g></g></svg>
